# xmcd
#
# Track frame offsets:
#	150
#	2062
#	18542
#	31402
#	52001
#	68409
#	84703
#	97034
#	112726
#	131009
#	149081
#	162763
#	180820
#	193000
#	210139
#	212020
#	223132
#	239528
#	254572
#	269076
#	291185
#	305669
#	325419
#
# Disc length: 4508 seconds
#
# Revision: 1
# Processed by: cddbd v1.5.2PL0 Copyright (c) Steve Scherf et al.
# Submitted via: audiograbber 1.83.01
#
DISCID=5b119a17
DTITLE=Glenn Erickson - Diamondback Records Compilation 4
DYEAR=2013
DGENRE=
TTITLE0=Intro -Diamondback Records
TTITLE1=Good Hearted Woman -B Jeff Stone
TTITLE2=Ain´t That A Loving Shame -Allan Karl and Donna CaCunningham
TTITLE3=Take Me Back -Guy Stefan
TTITLE4=Get So lonesome -Allen Karl
TTITLE5=At The Dairy Queen -Mitch Snow 
TTITLE6=Down In Texas -Bobby G Rice
TTITLE7=Sweet Meroies -Ann Pascoe and Dennis Marsh
TTITLE8=Good Company -Bob Runk
TTITLE9=One Step At A Time -Joe Gillasie
TTITLE10=Dreaming -Fraser
TTITLE11=Knockville -Pecos Red
TTITLE12=Choosey Appa -Noel Parlane
TTITLE13=Momma Knows -William Roldan
TTITLE14=Intro -Diamondback Records
TTITLE15=I Quit Hurting Yesterday -Glenn Erickson
TTITLE16=After All These Years -Dan Shafer
TTITLE17=Somewhere Betwin -Walter Walsh and Rawina Puia 
TTITLE18=Legend Of Billy McCann -William Ray
TTITLE19=Home -Guy Stefan
TTITLE20=Thinking ´Bout Luv -Marcella Tambouris
TTITLE21=My Way -Glenn Erickson
TTITLE22=I Saw Jesus Wearing Blue Shued Shoes -Le Naye Pearson
EXTD=
EXTT0=
EXTT1=
EXTT2=
EXTT3=
EXTT4=
EXTT5=
EXTT6=
EXTT7=
EXTT8=
EXTT9=
EXTT10=
EXTT11=
EXTT12=
EXTT13=
EXTT14=
EXTT15=
EXTT16=
EXTT17=
EXTT18=
EXTT19=
EXTT20=
EXTT21=
EXTT22=
PLAYORDER=
